<svg width="55" height="70" viewBox="0 0 55 70" fill="none" xmlns="http://www.w3.org/2000/svg">
	<path d="M29.7917 32.0833C29.7917 29.7627 30.516 27.5371 31.8053 25.8961C33.0946 24.2552 34.8433 23.3333 36.6667 23.3333H43.5417C44.1495 23.3333 44.7324 23.6406 45.1621 24.1876C45.5919 24.7346 45.8333 25.4765 45.8333 26.25C45.8333 27.0235 45.5919 27.7654 45.1621 28.3124C44.7324 28.8594 44.1495 29.1667 43.5417 29.1667H36.6667C36.0589 29.1667 35.476 29.474 35.0462 30.0209C34.6164 30.5679 34.375 31.3098 34.375 32.0833V35C34.375 35.7735 34.6164 36.5154 35.0462 37.0624C35.476 37.6094 36.0589 37.9167 36.6667 37.9167H38.9583C40.7817 37.9167 42.5304 38.8385 43.8197 40.4795C45.109 42.1204 45.8333 44.346 45.8333 46.6667V49.5833C45.8333 51.904 45.109 54.1296 43.8197 55.7705C42.5304 57.4115 40.7817 58.3333 38.9583 58.3333H32.0833C31.4755 58.3333 30.8927 58.026 30.4629 57.4791C30.0331 56.9321 29.7917 56.1902 29.7917 55.4167C29.7917 54.6431 30.0331 53.9013 30.4629 53.3543C30.8927 52.8073 31.4755 52.5 32.0833 52.5H38.9583C39.5661 52.5 40.149 52.1927 40.5788 51.6457C41.0086 51.0988 41.25 50.3569 41.25 49.5833V46.6667C41.25 45.8931 41.0086 45.1513 40.5788 44.6043C40.149 44.0573 39.5661 43.75 38.9583 43.75H36.6667C34.8433 43.75 33.0946 42.8281 31.8053 41.1872C30.516 39.5462 29.7917 37.3206 29.7917 35V32.0833Z"
	      fill="#ECECEC"/>
	<path d="M27.5 26.25C27.5 25.4765 27.2586 24.7346 26.8288 24.1876C26.399 23.6406 25.8161 23.3333 25.2083 23.3333C24.6005 23.3333 24.0177 23.6406 23.5879 24.1876C23.1581 24.7346 22.9167 25.4765 22.9167 26.25V49.5833C22.9167 50.3569 22.6752 51.0988 22.2455 51.6457C21.8157 52.1927 21.2328 52.5 20.625 52.5H16.0417C15.4339 52.5 14.851 52.8073 14.4212 53.3543C13.9914 53.9013 13.75 54.6431 13.75 55.4167C13.75 56.1902 13.9914 56.9321 14.4212 57.4791C14.851 58.026 15.4339 58.3333 16.0417 58.3333H20.625C22.4484 58.3333 24.197 57.4115 25.4864 55.7705C26.7757 54.1296 27.5 51.904 27.5 49.5833V26.25Z"
	      fill="#ECECEC"/>
	<path d="M0 14.5833C0 10.7156 1.20721 7.00627 3.35607 4.27136C5.50492 1.53645 8.41939 0 11.4583 0H43.5417C46.5806 0 49.4951 1.53645 51.6439 4.27136C53.7928 7.00627 55 10.7156 55 14.5833V55.4167C55 59.2844 53.7928 62.9937 51.6439 65.7286C49.4951 68.4635 46.5806 70 43.5417 70H11.4583C8.41939 70 5.50492 68.4635 3.35607 65.7286C1.20721 62.9937 0 59.2844 0 55.4167V14.5833ZM11.4583 5.83333C9.63497 5.83333 7.88629 6.75521 6.59697 8.39615C5.30766 10.0371 4.58333 12.2627 4.58333 14.5833V55.4167C4.58333 57.7373 5.30766 59.9629 6.59697 61.6039C7.88629 63.2448 9.63497 64.1667 11.4583 64.1667H43.5417C45.365 64.1667 47.1137 63.2448 48.403 61.6039C49.6923 59.9629 50.4167 57.7373 50.4167 55.4167V14.5833C50.4167 12.2627 49.6923 10.0371 48.403 8.39615C47.1137 6.75521 45.365 5.83333 43.5417 5.83333H11.4583Z"
	      fill="#ECECEC"/>
</svg>
