<svg width="55" height="70" viewBox="0 0 55 70" fill="none" xmlns="http://www.w3.org/2000/svg">
	<path d="M17.7111 54.1348C17.7111 54.1348 14.8611 55.6898 19.738 56.2173C24.8843 56.8969 30.1197 56.6884 35.1862 55.6023C36.4951 56.3372 37.8682 56.9661 39.2907 57.4823C24.6921 63.3548 6.24471 57.1423 17.7111 54.1348Z"
	      fill="#ECECEC"/>
	<path d="M15.9292 46.4698C15.9292 46.4698 12.733 48.6898 17.6152 49.1648C24.264 49.9071 30.9982 49.6037 37.5408 48.2673C38.4253 49.0415 39.4696 49.6371 40.6091 50.0173C22.9581 54.8623 3.29622 50.4048 15.9292 46.4698Z"
	      fill="#ECECEC"/>
	<path d="M30.9619 33.4699C31.4349 34.0057 31.7868 34.6263 31.9961 35.2939C32.2053 35.9615 32.2676 36.6621 32.1792 37.353C32.0907 38.0439 31.8533 38.7107 31.4815 39.3127C31.1097 39.9147 30.6112 40.4394 30.0164 40.8548C30.0164 40.8548 39.1495 36.4299 34.9545 30.8874C31.0365 25.7199 28.0294 23.1499 44.2981 14.2974C44.2981 14.2974 18.7658 20.2824 30.9619 33.4699Z"
	      fill="#ECECEC"/>
	<path d="M50.2776 59.8023C50.2776 59.8023 52.3871 61.4323 47.9551 62.6948C39.5278 65.0898 12.8821 65.8148 5.47762 62.7898C2.81412 61.7023 7.80551 60.1948 9.37698 59.8798C10.2188 59.6868 11.0835 59.596 11.9499 59.6098C8.99077 57.6523 -7.17665 63.4523 3.73836 65.1098C33.5056 69.6397 57.9991 63.0723 50.2776 59.8023Z"
	      fill="#ECECEC"/>
	<path d="M19.0828 38.5299C19.0828 38.5299 5.52822 41.5523 14.2885 42.6498C20.2585 43.0848 26.2577 43.0246 32.2165 42.4698C35.9822 42.1486 39.7328 41.6857 43.4591 41.0823C42.275 41.5654 41.1348 42.1381 40.0498 42.7948C26.2848 46.1923 -0.304831 44.6123 7.35006 41.1373C10.9865 39.4055 15.0104 38.5125 19.0881 38.5324"
	      fill="#ECECEC"/>
	<path d="M43.3978 51.2873C57.3892 44.4623 50.9195 37.9049 46.4049 38.7874C45.8617 38.8817 45.3274 39.0163 44.8068 39.1899C45.1032 38.7948 45.5202 38.4932 46.0027 38.3249C54.9361 35.3774 61.8052 47.0198 43.1181 51.6298C43.2349 51.5328 43.3281 51.4182 43.3978 51.2873Z"
	      fill="#ECECEC"/>
	<path d="M34.9572 0C34.9572 0 42.7053 7.27497 27.6086 18.4649C15.5004 27.4399 24.8466 32.5574 27.6086 38.4024C20.5424 32.4174 15.3565 27.1524 18.835 22.2449C23.941 15.0474 38.0895 11.5575 34.9572 0Z"
	      fill="#ECECEC"/>
	<path d="M20.4571 69.7797C33.8865 70.5872 54.5126 69.3322 55 63.3673C55 63.3673 54.0598 65.6173 43.9012 67.4248C32.6679 69.2368 21.2033 69.4055 9.915 67.9248C9.915 67.9248 11.633 69.2572 20.4598 69.7897"
	      fill="#ECECEC"/>
</svg>
